<svg id="Layer_1" data-name="Layer 1" xmlns="http://www.w3.org/2000/svg" viewBox="0 0 34.22 33.53"><defs><style>.cls-1{fill:#414042;}.cls-2{fill:none;}</style></defs><title>pintere-b</title><path id="path" class="cls-1" d="M19.9,24.6a5,5,0,0,1-4.4-2.2s-1,4.2-1.2,5a19.81,19.81,0,0,1-3.4,6c-.2.2-.4.2-.4-.2a27.33,27.33,0,0,1,0-7c.5-1.4,2.5-10,2.5-10a7.65,7.65,0,0,1-.6-3c0-2.7,1.6-4.7,3.5-4.7,1.6,0,2.4,1.2,2.4,2.8s-1,4.2-1.6,6.6a2.65,2.65,0,0,0,1.7,3.4,2.08,2.08,0,0,0,1.1.1c3.4,0,5.8-4.4,5.8-9.8,0-4-2.8-7-7.6-7A8.75,8.75,0,0,0,8.8,13v.5A4.8,4.8,0,0,0,10,17.1c.4.4.4.6.2,1a2.3,2.3,0,0,1-.4,1.4c-.2.4-.4.6-1,.4-2.6-1-3.8-3.8-3.8-7C5.2,7.7,9.6,1.5,18.3,1.5c7,0,11.6,5,11.6,10.6C29.9,19.2,25.9,24.6,19.9,24.6Z"/><rect class="cls-2" width="34.9" height="34.9"/><rect class="cls-2" y="0.05" width="34.91" height="34.91"/></svg>