<svg id="Layer_1" data-name="Layer 1" xmlns="http://www.w3.org/2000/svg" viewBox="0 0 32 32"><defs><style>.cls-1{fill:#333;}</style></defs><title>pro32</title><path class="cls-1" d="M16.25,1.87A14.37,14.37,0,0,0,16,30.61V19.17h0c-.73-.61-3.1-2.77-3.1-5.36,0-3.06,3.32-5.54,3.32-5.54s3.32,2.48,3.32,5.54c0,2.59-2.38,4.76-3.1,5.36h0V30.61a14.37,14.37,0,0,0-.23-28.75ZM13.86,18.66C16,20.8,16,24.43,16,24.43s-3.63.17-5.82-2S8,16.7,8,16.7,11.67,16.53,13.86,18.66ZM22.1,22c-1.82,2.46-5.43,2.87-5.43,2.87s-.66-3.57,1.16-6S23.26,16,23.26,16,23.92,19.54,22.1,22Z"/></svg>