<svg id="Layer_1" data-name="Layer 1" xmlns="http://www.w3.org/2000/svg" viewBox="0 0 34.9 34.9"><defs><style>.cls-1{fill:none;}.cls-2{fill:#414042;}</style></defs><title>twitter-b</title><rect class="cls-1" width="34.9" height="34.9"/><path id="path" class="cls-2" d="M29.85,11.15v.8c0,8.5-6.6,18.5-18.5,18.5a16.74,16.74,0,0,1-9.9-3h1.6a13,13,0,0,0,8.1-2.8A6.88,6.88,0,0,1,5,20c.4,0,.8.2,1.2.2A5.54,5.54,0,0,0,8,20a6.54,6.54,0,0,1-5.2-6.4h0a6.11,6.11,0,0,0,3,.8,6.82,6.82,0,0,1-3-5.4,9.94,9.94,0,0,1,.8-3.4,18.2,18.2,0,0,0,13.5,6.8,3.18,3.18,0,0,1-.2-1.4,6.65,6.65,0,0,1,11.4-4.6,10.77,10.77,0,0,0,4.2-1.6,6.29,6.29,0,0,1-2.8,3.6,16.37,16.37,0,0,0,3.8-1A14.1,14.1,0,0,1,29.85,11.15Z"/><rect class="cls-1" width="34.91" height="34.91"/><rect class="cls-1" width="34.9" height="34.9"/></svg>