<?xml version="1.0" encoding="UTF-8"?>
<svg width="48px" height="48px" viewBox="0 0 48 48" version="1.1" xmlns="http://www.w3.org/2000/svg" xmlns:xlink="http://www.w3.org/1999/xlink">
    <title>facebook</title>
    <defs>
        <polygon id="path-1" points="0 0 48 0 48 47.709358 0 47.709358"></polygon>
    </defs>
    <g id="HOMEPAGE" stroke="none" stroke-width="1" fill="none" fill-rule="evenodd">
        <g id="Home/Generic---Desktop-HD" transform="translate(-1197.000000, -4714.000000)">
            <g id="footer" transform="translate(-301.000000, 3659.000000)">
                <g id="lower-footer" transform="translate(287.000000, 644.000000)">
                    <g id="Group-3" transform="translate(1211.000000, 411.000000)">
                        <mask id="mask-2" fill="white">
                            <use xlink:href="#path-1"></use>
                        </mask>
                        <g id="Clip-2"></g>
                        <path d="M48,23.9995312 C48,10.7439108 37.2542141,-0.00187510987 23.9985937,-0.00187510987 C10.7429732,-0.00187510987 -0.0028126648,10.7439108 -0.0028126648,23.9995312 C-0.0028126648,35.9793269 8.77415474,45.9087837 20.2483739,47.709358 L20.2483739,30.9374377 L14.1542669,30.9374377 L14.1542669,23.9995312 L20.2483739,23.9995312 L20.2483739,18.7117214 C20.2483739,12.6963689 23.8316151,9.37367424 29.3140614,9.37367424 C31.9400121,9.37367424 34.6867199,9.84245171 34.6867199,9.84245171 L34.6867199,15.7490478 L31.6601988,15.7490478 C28.6786335,15.7490478 27.7488134,17.5991718 27.7488134,19.4972518 L27.7488134,23.9995312 L34.4054534,23.9995312 L33.3413286,30.9374377 L27.7488134,30.9374377 L27.7488134,47.709358 C39.2230326,45.9087837 48,35.9793269 48,23.9995312" id="Fill-1" fill="#FFFFFF" mask="url(#mask-2)"></path>
                    </g>
                </g>
            </g>
        </g>
    </g>
</svg>