<?xml version="1.0" encoding="UTF-8"?>
<svg width="1440px" height="243px" viewBox="0 0 1440 243" version="1.1" xmlns="http://www.w3.org/2000/svg" xmlns:xlink="http://www.w3.org/1999/xlink">
    <title>Group</title>
    <g id="FOOTER-SLICE" stroke="none" stroke-width="1" fill="none" fill-rule="evenodd">
        <g id="Landing-Page/Agriculture---Desktop-HD" transform="translate(-780.000000, -3228.000000)" fill-rule="nonzero">
            <g id="Group" transform="translate(780.000000, 3228.513975)">
                <path d="M1440,45.1364337 C1265.74463,86.4623876 1079.18213,104.008606 880.3125,97.7750876 C599.18213,88.9631276 305.74463,56.3714318 0,2.27373675e-13 L0,242.486025 L1440,242.486025 L1440,45.1364337 Z" id="Path" fill="#008449"></path>
                <path d="M0,17.4742595 C264.475324,71.3005099 549.51048,105.890094 855.105469,121.243013 C1029.51048,130.005021 1224.47532,119.530363 1440,89.8190399 L1440,242.486025 L0,242.486025 L0,17.4742595 Z" id="Path" fill="#167348"></path>
                <path d="M1440,120.473284 C1363.18561,126.532429 1303.89378,131.49939 1262.12451,135.374167 C866.413453,171.869069 445.705283,140.58914 4.54747351e-13,41.5343779 L4.54747351e-13,242.486025 L1440,242.486025 L1440,120.473284 Z" id="Path" fill="#1F6948"></path>
                <path d="M2.27373675e-13,62.4860251 C439.801848,166.404769 776.781695,212.246901 1010.93954,200.012423 C1110.39727,194.895422 1253.41743,176.873818 1440,145.947611 L1440,242.486025 L2.27373675e-13,242.486025 L2.27373675e-13,62.4860251 Z" id="Path" fill="#296148"></path>
            </g>
        </g>
    </g>
</svg>