<?xml version="1.0" encoding="UTF-8"?>
<svg width="24px" height="24px" viewBox="0 0 24 24" version="1.1" xmlns="http://www.w3.org/2000/svg" xmlns:xlink="http://www.w3.org/1999/xlink">
    <g stroke="none" stroke-width="1" fill="none" fill-rule="evenodd">
        <g transform="translate(-956.000000, -357.000000)" fill="#ffffff" fill-rule="nonzero">
            <g transform="translate(-2.000000, 322.000000)">
                <g transform="translate(456.500000, 29.000000)">
                    <g transform="translate(501.500000, 6.000000)">
                        <path d="M2.71092043,2.71124921 C1.14682294,4.27571428 0.194563099,6.3483899 0.0267079196,8.55426694 C-0.141160627,10.7600772 0.486329686,12.9529883 1.79548647,14.7361363 C3.10477691,16.5193845 5.0092966,17.7747728 7.16431248,18.2750301 C9.3191947,18.7753875 11.5820817,18.4875441 13.5430098,17.4637579 C13.9034156,17.2761764 14.314883,17.2106484 14.7157571,17.2768281 C15.1166312,17.3430077 15.485124,17.5375099 15.766197,17.830954 C17.1158222,19.2479151 18.2632391,22.0569078 19.4200464,23.2138153 C20.097783,23.8915519 21.0856991,24.1561502 22.011459,23.9081269 C22.9372189,23.6599766 23.660403,22.9368192 23.90856,22.0110258 C24.15658,21.0851323 23.8918514,20.0973498 23.2141148,19.4196132 C22.0573075,18.2629397 19.2481477,17.1152554 17.8312535,15.7657639 C17.5378093,15.4848512 17.3434275,15.1163318 17.2771275,14.7154576 C17.2109445,14.3145835 17.2766054,13.9031161 17.4640573,13.5427103 C18.4879973,11.5816486 18.775687,9.31876157 18.2753295,7.16401302 C17.774972,5.00926447 16.5196171,3.10481163 14.7364357,1.79552118 C12.9531875,0.486230729 10.7601093,-0.141246217 8.55423223,0.026742631 C6.34842203,0.194611177 4.27547907,1.14689107 2.7112145,2.71095514 L2.71092043,2.71124921 Z M13.8850026,13.8846631 C12.6574509,15.1122147 10.9925668,15.8018479 9.25670432,15.8018479 C7.52070816,15.8018479 5.85582405,15.1122147 4.62840603,13.8846631 C3.400988,12.6571114 2.71122118,10.9922272 2.71122118,9.25636476 C2.71122118,7.52050227 3.40085434,5.85548449 4.62840603,4.62806647 C5.85595772,3.40064844 7.52084183,2.71088162 9.25670432,2.71088162 C10.9927005,2.71088162 12.6575846,3.40051477 13.8850026,4.62806647 C14.6974444,5.44050826 15.2817462,6.45245143 15.5790935,7.56240758 C15.8764541,8.67223007 15.8764541,9.8408002 15.5790935,10.9505893 C15.2817328,12.0604118 14.6974444,13.0724552 13.8850026,13.8849304 L13.8850026,13.8846631 Z"></path>
                    </g>
                </g>
            </g>
        </g>
    </g>
</svg>